<?xml version="1.0" standalone="no"?>
<!DOCTYPE svg PUBLIC "-//W3C//DTD SVG 20010904//EN"
 "http://www.w3.org/TR/2001/REC-SVG-20010904/DTD/svg10.dtd">
<svg version="1.0" xmlns="http://www.w3.org/2000/svg"
 width="228.000000pt" height="228.000000pt" viewBox="0 0 228.000000 228.000000"
 preserveAspectRatio="xMidYMid meet">
<metadata>
Created by potrace 1.14, written by Peter Selinger 2001-2017
</metadata>
<g transform="translate(0.000000,228.000000) scale(0.100000,-0.100000)"
fill="#000000" stroke="none">
<path d="M670 2262 c-118 -65 -132 -212 -27 -296 l39 -31 298 -3 c284 -3 300
-2 339 17 22 12 52 37 68 58 24 31 28 46 28 97 0 68 -21 107 -78 148 -31 23
-38 23 -332 26 -278 2 -303 1 -335 -16z"/>
<path d="M401 1626 c-44 -16 -99 -79 -107 -125 -11 -58 11 -121 56 -162 22
-20 54 -39 71 -43 17 -3 411 -6 876 -6 823 0 845 0 883 20 21 11 51 36 67 57
24 31 28 46 28 99 0 55 -4 67 -30 100 -65 80 5 74 -955 73 -652 0 -863 -3
-889 -13z"/>
<path d="M105 983 c-46 -24 -83 -63 -96 -100 -16 -49 -3 -122 30 -163 55 -69
-7 -65 976 -68 660 -2 901 0 933 9 52 14 109 75 118 128 9 45 -11 119 -39 150
-12 13 -41 32 -64 42 -39 18 -82 19 -935 19 -791 -1 -896 -3 -923 -17z"/>
<path d="M833 353 c-12 -2 -40 -21 -62 -41 -47 -43 -68 -105 -57 -166 9 -48
79 -120 125 -129 19 -4 205 -7 415 -7 429 0 436 1 492 76 25 32 29 46 29 99 0
53 -5 68 -29 100 -57 74 -61 75 -501 73 -214 0 -400 -3 -412 -5z"/>
</g>
</svg>
